<?xml version="1.0" encoding="utf-8"?>
<!-- Generator: Adobe Illustrator 26.3.1, SVG Export Plug-In . SVG Version: 6.00 Build 0)  -->
<svg version="1.1" id="Layer_1" xmlns="http://www.w3.org/2000/svg" xmlns:xlink="http://www.w3.org/1999/xlink" x="0px" y="0px"
	 viewBox="0 0 28 28" style="enable-background:new 0 0 28 28;" xml:space="preserve">
<style type="text/css">
	.st0{fill:#FFFFFF;stroke:#000000;stroke-miterlimit:10;}
</style>
<path class="st0" d="M7.8,23.5c1.4,0,3.6-0.1,6.6-0.7c-0.5,1.4-1.9,2.4-3.5,2.4C9.6,25.2,8.5,24.5,7.8,23.5L7.8,23.5z M24.9,15.7
	c0.2,1.3-0.6,2.4-2.7,3.3c-1.1,0.5-3.5,1.5-7.6,2.3c-3.1,0.6-5.4,0.7-6.8,0.7c-0.4,0-0.8,0-1.1,0C4.6,22,3.3,21.2,3.1,20
	c-0.4-1.9,0.2-2.7,1.2-3.9l0.3-0.3c0.7-0.8,0.9-1.7,0.5-3.8c-0.9-4.9,1.2-8.2,6-9.1c4.8-0.9,8.1,1.3,9,6.2c0.4,2.2,1,2.8,1.9,3.4v0
	l0.4,0.2C23.7,13.3,24.5,13.8,24.9,15.7z"/>
</svg>
