<?xml version="1.0" encoding="utf-8"?>
<!-- Generator: Adobe Illustrator 26.3.1, SVG Export Plug-In . SVG Version: 6.00 Build 0)  -->
<svg version="1.1" id="Layer_1" xmlns="http://www.w3.org/2000/svg" xmlns:xlink="http://www.w3.org/1999/xlink" x="0px" y="0px"
	 viewBox="0 0 28 28" style="enable-background:new 0 0 28 28;" xml:space="preserve">
<style type="text/css">
	.st0{fill:#FFFFFF;stroke:#000000;stroke-miterlimit:10;}
</style>
<path class="st0" d="M14,2c6.8,0,12,5,12,11.6s-5.2,11.6-12,11.6c-1.2,0-2.3-0.2-3.5-0.5c-0.2-0.1-0.4,0-0.6,0L7.5,26
	c-0.5,0.2-1.1,0-1.3-0.5c0-0.1-0.1-0.2-0.1-0.4L6.1,23c0-0.3-0.1-0.5-0.3-0.7C3.3,20.1,2,17,2,13.7C2,7,7.2,2,14,2z M6.8,17.1
	c-0.2,0.3-0.1,0.6,0.2,0.8c0.2,0.1,0.5,0.1,0.6,0l3.8-2.9c0.3-0.2,0.6-0.2,0.9,0l2.8,2.1c0.8,0.6,1.9,0.4,2.5-0.4
	c0,0,0.1-0.1,0.1-0.1l3.5-5.6c0.2-0.3,0.1-0.6-0.2-0.8c-0.2-0.1-0.5-0.1-0.6,0l-3.8,2.9c-0.3,0.2-0.6,0.2-0.9,0L12.9,11
	c-0.8-0.6-1.9-0.4-2.5,0.4c0,0-0.1,0.1-0.1,0.1L6.8,17.1z"/>
</svg>
